#!OML:ASF G:\JayActor3\Patient Classification 1\Patient 1\Session 6\male.ASF
:FULLY-SPECIFIED
:DEGREES
611
root 23.9187 15.9557 -11.2733 31.8715 -57.7718 -2.23042
lowerback 35.1294 -1.42936 2.89649
upperback 9.00053 -1.36055 0.278205
thorax -7.68597 -0.886517 -0.698787
lowerneck 0.0103022 1.02952 3.24664
upperneck -9.36635 1.36298 -0.653476
head -2.96099 0.556894 -0.803059
rclavicle -6.79844e-014 2.44505e-014
rhumerus -32.2628 3.7522 -86.0838
rradius 57.2517
rwrist -3.16927
rhand -19.2076 -6.08977
rfingers 7.12502
rthumb 7.10478 -35.9505
lclavicle -6.79844e-014 2.44505e-014
lhumerus -29.8534 -6.39981 83.7762
lradius 51.0619
lwrist 31.1612
lhand -17.5851 6.29435
lfingers 7.12502
lthumb 8.67074 36.0963
rfemur -65.2613 6.67057 17.4953
rtibia 45.4264
rfoot -10.9154 -13.5546
rtoes 6.29072
lfemur -55.0565 2.57083 -24.302
ltibia 40.8548
lfoot -13.6085 -1.25927
ltoes 5.43205
612
root 23.896 15.9568 -11.2656 31.9697 -57.7417 -2.25936
lowerback 35.1019 -1.43117 2.9044
upperback 8.99127 -1.35801 0.2925
thorax -7.68578 -0.885143 -0.689212
lowerneck 0.0236242 1.02071 3.23812
upperneck -9.38347 1.3532 -0.628889
head -2.96964 0.551176 -0.793663
rclavicle -6.16232e-015 4.75095e-014
rhumerus -32.2494 3.773 -86.0928
rradius 57.3414
rwrist -3.18636
rhand -19.2924 -6.06089
rfingers 7.12502
rthumb 7.02295 -35.9244
lclavicle -6.16232e-015 4.75095e-014
lhumerus -29.8583 -6.47922 83.7943
lradius 51.1777
lwrist 31.3148
lhand -17.6622 6.16315
lfingers 7.12502
lthumb 8.59636 35.9681
rfemur -65.2827 6.62893 17.586
rtibia 45.488
rfoot -10.9882 -13.5074
rtoes 6.31414
lfemur -55.0437 2.54181 -24.2412
ltibia 40.8631
lfoot -13.7144 -1.23572
ltoes 5.50555
613
root 23.8737 15.9578 -11.2579 32.0472 -57.7252 -2.27309
lowerback 35.0743 -1.42821 2.8965
upperback 8.9845 -1.35546 0.304716
thorax -7.68273 -0.88373 -0.673574
lowerneck 0.0289543 1.01342 3.23529
upperneck -9.38863 1.34437 -0.616706
head -2.97264 0.546348 -0.789108
rclavicle 2.18663e-015 5.36719e-015
rhumerus -32.2228 3.78738 -86.0992
rradius 57.4209
rwrist -3.1855
rhand -19.4011 -6.03231
rfingers 7.12502
rthumb 6.91796 -35.8993
lclavicle 2.18663e-015 5.36719e-015
lhumerus -29.8579 -6.55025 83.8112
lradius 51.2855
lwrist 31.4578
lhand -17.7862 6.05363
lfingers 7.12502
lthumb 8.47666 35.8635
rfemur -65.2954 6.58743 17.6677
rtibia 45.5466
rfoot -11.0633 -13.4543
rtoes 6.33621
lfemur -55.0133 2.5125 -24.1953
ltibia 40.8586
lfoot -13.8297 -1.19001
ltoes 5.56188
614
root 23.852 15.959 -11.2503 32.1015 -57.72 -2.27257
lowerback 35.053 -1.42092 2.87928
upperback 8.97902 -1.35121 0.312772
thorax -7.6806 -0.881525 -0.657944
lowerneck 0.0266128 1.00586 3.24101
upperneck -9.37884 1.33459 -0.611835
head -2.96909 0.541225 -0.78817
rclavicle 5.76476e-014 -5.28767e-014
rhumerus -32.1868 3.79127 -86.1041
rradius 57.4909
rwrist -3.17324
rhand -19.4905 -6.00634
rfingers 7.12502
rthumb 6.83167 -35.8761
lclavicle 5.76476e-014 -5.28767e-014
lhumerus -29.8542 -6.62962 83.828
lradius 51.3881
lwrist 31.5801
lhand -17.9463 5.95726
lfingers 7.12502
lthumb 8.32213 35.7733
rfemur -65.2945 6.54728 17.7399
rtibia 45.602
rfoot -11.1453 -13.3957
rtoes 6.35416
lfemur -54.9636 2.48271 -24.1611
ltibia 40.8457
lfoot -13.9526 -1.13059
ltoes 5.62395
615
root 23.8307 15.96 -11.2429 32.132 -57.7261 -2.25529
lowerback 35.0399 -1.41059 2.84389
upperback 8.97293 -1.34939 0.31858
thorax -7.68211 -0.88043 -0.634086
lowerneck 0.0179567 1.00152 3.24542
upperneck -9.35224 1.32876 -0.609624
head -2.95855 0.53851 -0.787759
rclavicle -5.56597e-014 4.17448e-014
rhumerus -32.1433 3.80561 -86.1103
rradius 57.5525
rwrist -3.16234
rhand -19.5426 -5.98647
rfingers 7.12502
rthumb 6.7814 -35.8579
lclavicle -5.56597e-014 4.17448e-014
lhumerus -29.8524 -6.71103 83.8433
lradius 51.4902
lwrist 31.6751
lhand -18.1249 5.87138
lfingers 7.12502
lthumb 8.14974 35.6942
rfemur -65.2837 6.50884 17.8003
rtibia 45.6559
rfoot -11.2308 -13.3326
rtoes 6.3592
lfemur -54.9017 2.45273 -24.1391
ltibia 40.8296
lfoot -14.0804 -1.06088
ltoes 5.69025
616
root 23.8099 15.961 -11.2358 32.1459 -57.7401 -2.23042
lowerback 35.0372 -1.39649 2.79888
upperback 8.96633 -1.34628 0.321503
thorax -7.68794 -0.878758 -0.608482
lowerneck 0.00448838 0.996996 3.25194
upperneck -9.31403 1.32266 -0.606546
head -2.94317 0.535743 -0.78728
rclavicle -4.77083e-015 1.97791e-014
rhumerus -32.0936 3.82747 -86.1194
rradius 57.6082
rwrist -3.15911
rhand -19.5646 -5.97748
rfingers 7.12502
rthumb 6.76013 -35.8496
lclavicle -4.77083e-015 1.97791e-014
lhumerus -29.85 -6.80934 83.856
lradius 51.591
lwrist 31.7432
lhand -18.3042 5.77098
lfingers 7.12502
lthumb 7.97677 35.6005
rfemur -65.2618 6.47634 17.8517
rtibia 45.708
rfoot -11.3234 -13.2675
rtoes 6.35136
lfemur -54.8295 2.4184 -24.1169
ltibia 40.8164
lfoot -14.2122 -0.985579
ltoes 5.79549
617
root 23.7897 15.9618 -11.2291 32.1544 -57.756 -2.20822
lowerback 35.0434 -1.38158 2.75048
upperback 8.95878 -1.34326 0.323143
thorax -7.69807 -0.877172 -0.582226
lowerneck -0.00859693 0.993537 3.26049
upperneck -9.27123 1.31825 -0.60141
head -2.92628 0.533773 -0.786496
rclavicle 3.04141e-014 -5.82439e-014
rhumerus -32.0391 3.86625 -86.1335
rradius 57.6615
rwrist -3.1679
rhand -19.6057 -5.95908
rfingers 7.12502
rthumb 6.72045 -35.8324
lclavicle 3.04141e-014 -5.82439e-014
lhumerus -29.8481 -6.922 83.8661
lradius 51.6949
lwrist 31.7754
lhand -18.492 5.69038
lfingers 7.12502
lthumb 7.79544 35.5267
rfemur -65.2319 6.44835 17.902
rtibia 45.7588
rfoot -11.4229 -13.1999
rtoes 6.3423
lfemur -54.7549 2.3777 -24.0862
ltibia 40.8108
lfoot -14.3453 -0.901694
ltoes 5.88893
618
root 23.77 15.9623 -11.2226 32.1656 -57.7733 -2.19427
lowerback 35.0536 -1.36571 2.70588
upperback 8.95058 -1.33805 0.321458
thorax -7.71043 -0.874571 -0.562197
lowerneck -0.0139685 0.988663 3.27927
upperneck -9.23475 1.31248 -0.596625
head -2.91299 0.530684 -0.787696
rclavicle 3.8763e-014 -6.85807e-015
rhumerus -31.9826 3.91455 -86.1546
rradius 57.7189
rwrist -3.19225
rhand -19.6522 -5.9357
rfingers 7.12502
rthumb 6.67556 -35.8105
lclavicle 3.8763e-014 -6.85807e-015
lhumerus -29.8423 -7.05463 83.8694
lradius 51.7948
lwrist 31.7893
lhand -18.6528 5.58688
lfingers 7.12502
lthumb 7.64025 35.4289
rfemur -65.1978 6.42342 17.9546
rtibia 45.8072
rfoot -11.5267 -13.1269
rtoes 6.33233
lfemur -54.6847 2.32891 -24.0437
ltibia 40.8166
lfoot -14.479 -0.806089
ltoes 5.95021
619
root 23.7509 15.9626 -11.2163 32.1878 -57.7902 -2.19693
lowerback 35.0659 -1.34985 2.66984
upperback 8.94228 -1.33013 0.31884
thorax -7.72365 -0.870777 -0.548592
lowerneck -0.0179271 0.984176 3.29488
upperneck -9.2007 1.3076 -0.58643
head -2.9008 0.527942 -0.786654
rclavicle 3.73715e-014 1.73937e-014
rhumerus -31.9241 3.97436 -86.1813
rradius 57.7814
rwrist -3.22652
rhand -19.7057 -5.89628
rfingers 7.12502
rthumb 6.6239 -35.7727
lclavicle 3.73715e-014 1.73937e-014
lhumerus -29.8331 -7.20459 83.8695
lradius 51.8943
lwrist 31.788
lhand -18.7838 5.47912
lfingers 7.12502
lthumb 7.5138 35.3257
rfemur -65.1604 6.40011 18.0164
rtibia 45.8528
rfoot -11.6329 -13.0481
rtoes 6.3279
lfemur -54.6211 2.27094 -23.9831
ltibia 40.8365
lfoot -14.6152 -0.695994
ltoes 5.97777
620
root 23.7326 15.9626 -11.21 32.2236 -57.8041 -2.21759
lowerback 35.075 -1.33669 2.64909
upperback 8.93522 -1.3208 0.314416
thorax -7.73446 -0.866359 -0.545528
lowerneck -0.0207481 0.981441 3.30798
upperneck -9.16909 1.30555 -0.570021
head -2.88963 0.526462 -0.783271
rclavicle -5.70512e-014 6.05299e-014
rhumerus -31.8639 4.04438 -86.2142
rradius 57.8555
rwrist -3.27678
rhand -19.7603 -5.84727
rfingers 7.12502
rthumb 6.57124 -35.7253
lclavicle -5.70512e-014 6.05299e-014
lhumerus -29.8191 -7.37323 83.8673
lradius 51.9949
lwrist 31.7812
lhand -18.8898 5.38989
lfingers 7.12502
lthumb 7.41152 35.2401
rfemur -65.1194 6.36915 18.0947
rtibia 45.894
rfoot -11.7434 -12.9581
rtoes 6.32655
lfemur -54.566 2.20079 -23.9037
ltibia 40.8715
lfoot -14.7578 -0.570389
ltoes 5.96161
621
root 23.715 15.9622 -11.2034 32.2706 -57.8176 -2.25594
lowerback 35.08 -1.32626 2.63807
upperback 8.93047 -1.31176 0.31134
thorax -7.74133 -0.862167 -0.546147
lowerneck -0.0243987 0.98335 3.31405
upperneck -9.13555 1.30937 -0.556542
head -2.87753 0.528312 -0.779738
rclavicle 2.42517e-014 4.76089e-014
rhumerus -31.7999 4.13036 -86.2501
rradius 57.9411
rwrist -3.33529
rhand -19.8328 -5.79476
rfingers 7.12502
rthumb 6.50127 -35.675
lclavicle 2.42517e-014 4.76089e-014
lhumerus -29.803 -7.54633 83.867
lradius 52.0988
lwrist 31.7762
lhand -18.9629 5.31608
lfingers 7.12502
lthumb 7.34092 35.1687
rfemur -65.0726 6.32596 18.1941
rtibia 45.9309
rfoot -11.8576 -12.8552
rtoes 6.34385
lfemur -54.5154 2.11778 -23.8069
ltibia 40.9201
lfoot -14.9098 -0.422593
ltoes 5.89353
622
root 23.698 15.9614 -11.1964 32.3248 -57.8308 -2.31222
lowerback 35.0841 -1.31712 2.6399
upperback 8.92834 -1.30026 0.308928
thorax -7.74491 -0.85697 -0.553762
lowerneck -0.0310424 0.988544 3.31921
upperneck -9.0946 1.31704 -0.549445
head -2.86227 0.532481 -0.778109
rclavicle -4.35338e-014 6.1822e-014
rhumerus -31.7343 4.21836 -86.2851
rradius 58.0373
rwrist -3.37681
rhand -19.8964 -5.74575
rfingers 7.12502
rthumb 6.43982 -35.6279
lclavicle -4.35338e-014 6.1822e-014
lhumerus -29.7833 -7.73028 83.871
lradius 52.2041
lwrist 31.7841
lhand -19.011 5.2671
lfingers 7.12502
lthumb 7.29451 35.1214
rfemur -65.0133 6.26704 18.3198
rtibia 45.9626
rfoot -11.9775 -12.7418
rtoes 6.36714
lfemur -54.4609 2.02033 -23.6909
ltibia 40.9796
lfoot -15.0795 -0.257249
ltoes 5.81522
